<svg xmlns="http://www.w3.org/2000/svg" viewBox="0 0 64 64"><defs><style>.cls-1{isolation:isolate;}.cls-2{fill:#fb0;}.cls-3{fill:#e2e2e2;}.cls-4,.cls-5{fill:none;}.cls-5{stroke:#000;stroke-linecap:round;stroke-linejoin:round;stroke-width:2px;}.cls-6{opacity:0.25;mix-blend-mode:multiply;}.cls-7,.cls-8{mix-blend-mode:overlay;}.cls-8{fill:#fff;}</style></defs><title>Icon Color</title><g class="cls-1"><g id="Layer_1" data-name="Layer 1"><g id="Vector"><path class="cls-2" d="M61.18,32.56a17.21,17.21,0,0,1-4.88,6.22,11.09,11.09,0,0,0-4.8-1.1,10.85,10.85,0,0,0-4.51,1A10.32,10.32,0,0,0,45.6,37,10.83,10.83,0,0,0,38,33.92a11,11,0,0,0-3.1.44A11.24,11.24,0,0,0,28.2,27c-.05-.55-.08-1.11-.08-1.67A17.33,17.33,0,0,1,42.74,8.18,17.34,17.34,0,0,0,61.18,32.56Z"/><path class="cls-3" d="M60.68,54.57h0a2.77,2.77,0,0,1-2.35,1.24H5.71a2.84,2.84,0,0,1-2.42-1.31,11.26,11.26,0,0,1-1.66-5.89,10.74,10.74,0,0,1,.19-2.06,11.2,11.2,0,0,1,11-9.18A11.24,11.24,0,0,1,24.07,26.17a11.29,11.29,0,0,1,2.42.26h0A10.91,10.91,0,0,1,28.2,27a11.24,11.24,0,0,1,6.69,7.4,11,11,0,0,1,3.1-.44A10.83,10.83,0,0,1,45.6,37,10.32,10.32,0,0,1,47,38.65a10.85,10.85,0,0,1,4.51-1,11.09,11.09,0,0,1,4.8,1.1,10.94,10.94,0,0,1,6,7.78A11.93,11.93,0,0,1,60.68,54.57Z"/><path class="cls-4" d="M25.52,30.15a5.59,5.59,0,0,1,5.16,5.72"/><path class="cls-4" d="M34.25,38.12s6.38-3.47,9.66,3.28"/></g><g id="Line"><path class="cls-5" d="M61.18,32.56a17.21,17.21,0,0,1-4.88,6.22,11.09,11.09,0,0,0-4.8-1.1,10.85,10.85,0,0,0-4.51,1A10.32,10.32,0,0,0,45.6,37,10.83,10.83,0,0,0,38,33.92a11,11,0,0,0-3.1.44A11.24,11.24,0,0,0,28.2,27c-.05-.55-.08-1.11-.08-1.67A17.33,17.33,0,0,1,42.74,8.18,17.34,17.34,0,0,0,61.18,32.56Z"/><path class="cls-5" d="M60.68,54.57h0a2.77,2.77,0,0,1-2.35,1.24H5.71a2.84,2.84,0,0,1-2.42-1.31,11.26,11.26,0,0,1-1.66-5.89,10.74,10.74,0,0,1,.19-2.06,11.2,11.2,0,0,1,11-9.18A11.24,11.24,0,0,1,24.07,26.17a11.29,11.29,0,0,1,2.42.26h0A10.91,10.91,0,0,1,28.2,27a11.24,11.24,0,0,1,6.69,7.4,11,11,0,0,1,3.1-.44A10.83,10.83,0,0,1,45.6,37,10.32,10.32,0,0,1,47,38.65a10.85,10.85,0,0,1,4.51-1,11.09,11.09,0,0,1,4.8,1.1,10.94,10.94,0,0,1,6,7.78A11.93,11.93,0,0,1,60.68,54.57Z"/><path class="cls-5" d="M25.52,30.15a5.59,5.59,0,0,1,5.16,5.72"/><path class="cls-5" d="M34.25,38.12s6.38-3.47,9.66,3.28"/></g><g id="Shadow" class="cls-6"><path d="M5.71,55.82h5a2.84,2.84,0,0,1-2.42-1.31,11.26,11.26,0,0,1-1.66-5.89,10.74,10.74,0,0,1,.19-2.06,11.2,11.2,0,0,1,11-9.18,11.16,11.16,0,0,1,3.51-8.13,11,11,0,0,1,5.21-2.79l-.07,0h0a11.29,11.29,0,0,0-2.42-.26A11.24,11.24,0,0,0,12.84,37.38a11.2,11.2,0,0,0-11,9.18,10.74,10.74,0,0,0-.19,2.06,11.26,11.26,0,0,0,1.66,5.89A2.84,2.84,0,0,0,5.71,55.82Z"/><path d="M29.63,27.65h0a10,10,0,0,1,.89.56,11.34,11.34,0,0,1,2.09,1.9,15.2,15.2,0,0,0,.53-4c0-.38,0-.62,0-.84A17.3,17.3,0,0,1,42,10.18a15,15,0,0,1,.76-2A17.33,17.33,0,0,0,28.12,25.29c0,.31,0,.62,0,.92a1.15,1.15,0,0,1,.91,0A1.23,1.23,0,0,1,29.63,27.65Z"/></g><g id="Highligth" class="cls-7"><path class="cls-8" d="M56,32.58A17.32,17.32,0,0,1,42.74,8.18a16.93,16.93,0,0,0-5.76,2A17.3,17.3,0,0,0,53.47,32.77,17.79,17.79,0,0,0,56,32.58Z"/><path class="cls-8" d="M56.3,38.78a17.21,17.21,0,0,0,4.88-6.22,16.71,16.71,0,0,1-5,0,17.21,17.21,0,0,1-4.86,6.18,10.94,10.94,0,0,1,6,7.78,11.93,11.93,0,0,1-1.57,8h0a2.77,2.77,0,0,1-2.35,1.24h5a2.77,2.77,0,0,0,2.35-1.24h0a11.93,11.93,0,0,0,1.57-8A10.94,10.94,0,0,0,56.3,38.78Z"/></g></g></g></svg>